<svg width="531" height="493" viewBox="0 0 531 493" fill="none" xmlns="http://www.w3.org/2000/svg">
<g clip-path="url(#clip0)">
<path d="M514.305 126.497C503.237 135.485 487.512 145.443 474.561 149.733L493.801 153.347L414.324 246.898L255.915 292.403L68.4502 491.957L216.116 491.91L291.359 371.33L442.105 281.931L500.653 157.395L513.124 172.463C510.635 159.067 511.778 140.508 514.305 126.497Z" fill="#1FCB54"/>
<path d="M43.1387 337.746C43.1387 337.746 34.5513 322.384 32.4638 319.118C30.3764 315.852 24.9325 302.879 24.7388 302.367C24.545 301.855 28.4853 295.716 27.6067 295.506C26.728 295.296 25.7511 298.742 24.8124 298.33C23.8738 297.919 21.1314 289.614 20.5965 290.031C19.5951 290.799 22.0755 295.179 21.5407 295.454C21.0058 295.729 19.3932 290.639 18.3453 290.788C17.2975 290.938 20.3373 295.454 20.0426 295.855C19.7479 296.255 16.5935 291.998 16.0232 292.905C15.7121 293.398 18.9265 296.62 18.3071 296.922C17.6877 297.225 14.8334 295.144 14.5305 295.743C14.2276 296.342 17.1747 297.162 18.0561 298.796C18.9375 300.43 20.4355 301.111 21.0577 304.108C21.6798 307.104 22.6131 317.941 25.803 323.351C28.9929 328.76 36.0112 340.728 36.0112 340.728L43.1387 337.746Z" fill="#F79C8D"/>
<path d="M40.7621 332.772C40.7621 332.772 50.2581 342.989 51.6771 347.108C53.096 351.226 50.3127 357.115 46.4515 357.373C42.5903 357.632 34.0303 339.239 34.0303 339.239L40.7621 332.772Z" fill="#355389"/>
<path d="M85.494 406.742C84.8036 406.164 83.9686 406.426 81.5701 405.317C80.8442 405.036 80.0968 404.814 79.3352 404.652C79.285 404.642 79.2387 404.618 79.2016 404.583C79.1644 404.548 79.1379 404.503 79.1251 404.454C78.3938 401.697 75.2012 388.964 74.8492 385.292C74.4917 381.536 72.0658 365.616 71.6947 363.194C71.6893 363.155 71.6755 363.118 71.6543 363.085C71.633 363.052 71.6048 363.023 71.5716 363.002C71.5384 362.981 71.501 362.967 71.462 362.962C71.4229 362.956 71.3832 362.959 71.3455 362.971L64.3735 364.91C64.3038 364.928 64.2441 364.973 64.2073 365.035C64.1705 365.096 64.1596 365.17 64.177 365.24C64.6082 367.146 67.2878 379.052 68.0737 385.082C68.7013 389.89 75.8752 405.312 76.0198 406.298V406.325C76.0413 406.469 76.1137 406.6 76.2239 406.695C76.334 406.79 76.4746 406.842 76.6201 406.842H84.3889C84.6863 406.845 85.7123 406.93 85.494 406.742Z" fill="#F48C7F"/>
<path d="M69.973 356.325C66.2647 345.092 62.1143 345.571 62.1143 345.571L65.3233 369.184C67.6154 368.56 70.5979 367.168 72.8846 366.523C72.126 362.971 70.8872 359.089 69.973 356.325Z" fill="#13375B"/>
<path d="M68.8218 327.123C67.6866 319.736 60.9903 314.425 53.9883 318.01C52.4139 318.827 50.2827 320.461 49.1939 321.845C46.2523 325.612 45.5019 330.264 42.4648 333.922C43.7507 334.89 45.1121 335.753 46.5361 336.504L48.4272 333.987L47.7777 337.128C52.4766 339.372 59.1157 341.213 68.1969 341.172C69.3375 336.035 69.4276 331.056 68.8218 327.123Z" fill="#F7CC7F"/>
<path d="M71.0044 490.862C69.9347 490.078 69.0724 489.557 65.6588 487.904C65.4378 487.798 64.6273 487.28 64.3353 487.103C63.5421 486.578 62.8258 485.946 62.2069 485.224C61.5957 484.543 61.3037 482.359 61.1673 480.618C61.5193 476.729 67.1705 414.365 68.3548 407.621C69.5827 400.654 67.7108 390.023 67.7108 390.023L63.3448 388.389L55.0794 417.008L55.7316 438.798C55.7316 438.798 53.7887 445.062 53.5486 448.829C53.3085 452.596 56.3619 483.042 56.3619 483.042C56.3829 483.941 56.3282 484.841 56.1982 485.731C55.9745 486.869 54.722 489.214 55.2977 490.287C55.8735 491.361 56.5257 491.628 56.5257 491.628L71.3919 491.867C72.1914 491.865 71.6566 491.344 71.0044 490.862Z" fill="#F48C7F"/>
<path d="M48.4432 387.779C48.4432 387.779 43.2832 395.552 42.0525 401.986C40.8218 408.419 42.9557 428.186 40.5899 436.616C39.3101 441.181 34.4611 448.227 33.7216 454.124C32.9821 460.021 30.4199 477.039 30.4199 477.039C30.0324 478.826 29.4239 481.037 28.6353 482.064C28.1523 482.694 27.2709 483.489 26.6897 484.625C25.7864 486.395 26.2858 489.029 26.9625 490.478C27.3036 491.222 26.938 491.222 27.7157 491.461C28.8356 491.789 30.0369 491.696 31.0927 491.199C32.1485 490.703 32.9856 489.838 33.446 488.768C34.1245 487.202 34.5057 485.525 34.5703 483.821C34.6398 482.052 34.9145 480.297 35.3889 478.592L51.8869 438.19L63.8333 403.326L66.8923 385.368L48.4432 387.779Z" fill="#F79C8D"/>
<path d="M33.8826 487.607C30.3106 488.261 27.9366 486.169 26.7005 484.611C25.7918 486.384 25.3498 489.029 26.0156 490.484C26.605 491.766 28.3241 491.728 29.6748 491.78C31.1074 491.832 32.2126 491.039 32.922 489.792C33.3149 489.098 33.6367 488.366 33.8826 487.607Z" fill="#86B1F2"/>
<path d="M64.3325 487.101C60.4004 488.111 57.4943 487.425 55.8734 486.768C55.4559 487.959 54.8993 489.448 55.194 490.309C55.5541 491.361 56.0699 491.6 56.5229 491.611C60.1139 491.706 69.6754 491.834 72.4151 491.87C72.5009 491.871 72.5851 491.847 72.6578 491.802C72.7305 491.756 72.7886 491.691 72.8251 491.613C72.8616 491.536 72.8751 491.449 72.8638 491.365C72.8526 491.28 72.8171 491.2 72.7616 491.134C72.0767 490.323 64.6245 487.28 64.3325 487.101Z" fill="#86B1F2"/>
<path d="M51.7918 438.269L52.7223 438.329H52.7714L53.6937 438.381H53.7565L54.6843 438.427H54.7334C55.0472 438.427 55.3637 438.454 55.6803 438.463C59.2058 438.58 63.5581 438.533 66.3496 438.059C67.774 423.833 68.3034 410.852 68.8301 407.978C70.1099 401.008 67.7167 390.001 67.7167 390.001L66.5761 389.797L67.2965 385.711L48.1271 388.125C48.1271 388.125 42.7569 395.898 41.4799 402.329C40.2028 408.76 42.4186 428.532 39.96 436.962C39.9545 436.986 45.4284 437.839 51.7918 438.269Z" fill="#F7CC7F"/>
<path d="M52.6235 343.553C52.6235 343.553 45.8017 343.117 43.0729 346.067C40.3442 349.017 49.0762 372.338 49.5619 376.091C50.0476 379.844 47.0569 389.821 47.0569 389.821C47.0569 389.821 63.1101 393.052 67.6999 390.015C67.6999 390.015 68.191 363.031 67.6999 360.35C67.2087 357.67 63.1101 346.77 62.1278 345.697C61.1454 344.623 52.6235 343.553 52.6235 343.553Z" fill="#355389"/>
<path d="M54.8972 334.418C54.8972 334.418 54.8618 334.619 54.799 334.962C54.4934 336.597 53.32 342.044 52.5287 343.559C51.5709 345.37 55.8032 351.147 59.8963 350.441C61.1079 350.232 58.8676 345.133 58.9767 344.594C59.1814 343.559 59.4624 342.142 59.749 340.701L60.2265 338.283C60.6631 336.071 61.0178 334.265 61.0178 334.265L54.8972 334.418Z" fill="#F7A491"/>
<path d="M54.7988 334.962C54.8616 334.619 54.8971 334.418 54.8971 334.418L61.0095 334.265C61.0095 334.265 60.6547 336.071 60.2181 338.283C60.0653 339.053 59.9016 339.876 59.7433 340.688C58.6485 340.493 57.634 339.985 56.8236 339.225C55.8124 338.339 55.0505 337.205 54.6133 335.935C54.6897 335.551 54.7524 335.216 54.7988 334.962Z" fill="#F47458"/>
<path d="M59.0114 320.518C59.0114 320.518 56.1299 320.186 54.3234 322.523C52.517 324.86 50.5714 332.083 55.0575 336.014C59.5435 339.944 63.975 335.493 64.6326 330.779C65.2903 326.064 65.5468 320.349 59.0114 320.518Z" fill="#F7A491"/>
<path d="M65.9617 330.711C65.4159 331.751 64.5263 332.329 63.9533 331.999C63.3803 331.669 63.3503 330.555 63.8851 329.515C64.4199 328.474 65.3177 327.897 65.8935 328.227C66.4692 328.556 66.4965 329.67 65.9617 330.711Z" fill="#F7A491"/>
<path d="M59.3342 319.747C59.3342 319.747 55.4867 326.617 52.7334 326.935C49.9801 327.254 49.6172 330.904 49.6172 330.904C49.6172 330.904 50.6023 322.49 53.3283 320.867C56.0543 319.244 59.3342 319.747 59.3342 319.747Z" fill="#F7CC7F"/>
<path d="M53.4532 328.662C53.6769 329.882 53.2267 331.002 52.449 331.16C51.6713 331.318 50.8554 330.463 50.6316 329.253C50.4079 328.044 50.8581 326.914 51.6358 326.753C52.4135 326.592 53.2294 327.442 53.4532 328.662Z" fill="#F7A491"/>
<path d="M56.8452 333.094L61.0092 333.911C61.0092 333.911 60.6027 335.472 58.7608 335.164C56.515 334.791 56.8452 333.094 56.8452 333.094Z" fill="white"/>
<path d="M399.93 492.405L401.638 492.082L394.216 453.025L392.508 453.348L399.93 492.405Z" fill="#3C8F7C"/>
<path d="M320.942 492.554H318.89L326.544 452.988L328.249 453.312L320.942 492.554Z" fill="#3C8F7C"/>
<path d="M380.906 492.554H378.854L386.508 452.988L388.213 453.312L380.906 492.554Z" fill="#3C8F7C"/>
<path d="M339.658 492.554L341.325 492.575L333.985 453.165L332.279 453.489L339.658 492.554Z" fill="#184655"/>
<path d="M369.213 367.242C378.33 368.217 390.129 369.244 401.975 389.304C414.92 411.233 408.106 443.989 397.881 453.092C387.657 462.195 354.292 473.433 326.238 456.605C326.238 456.605 309.301 446.41 317.995 429.488C331.366 403.446 329.483 398.015 335.459 387.814C341.435 377.614 349.861 365.174 369.213 367.242Z" fill="#F47458"/>
<path d="M401.974 389.31C393.888 375.614 385.825 370.788 378.624 368.794C381.41 371.673 384.234 375.375 387.061 380.166C400.006 402.095 393.192 434.851 382.968 443.954C373.908 452.024 346.637 461.775 321.025 452.144C322.561 453.856 324.317 455.359 326.248 456.611C354.302 473.438 387.675 462.2 397.891 453.097C408.108 443.994 414.919 411.239 401.974 389.31Z" fill="#B75742"/>
<path d="M339.942 400.572L337.598 407.591L344.742 404.786L339.942 400.572Z" fill="#F79C8D"/>
<path d="M347.304 379.692C346.829 379.714 345.525 380.147 343.615 383.734C341.181 388.315 337.611 402.152 337.611 402.152L348.253 406.088L349.618 403.201L351.866 380.967C351.866 380.967 347.438 379.692 347.304 379.692Z" fill="#6394DB"/>
<path d="M361.354 377.695C358.314 377.695 350.793 378.583 347.303 379.692C347.303 379.692 344.741 401.615 349.612 418.274C350.703 422.003 348.711 433.734 348.711 433.734L380.204 433.32C380.204 433.32 376.474 404.963 377.879 400.382C379.284 395.8 379.32 379.839 379.32 379.839C379.32 379.839 379.101 379.806 372.241 378.627C368.641 378.04 365.001 377.729 361.354 377.695Z" fill="#86B1F2"/>
<path d="M365.024 474.424C365.024 474.424 364.328 482.424 363.046 484.641C361.763 486.858 363.114 490.633 363.182 491.14C363.25 491.647 365.878 492.396 370.059 491.957C374.239 491.519 374.171 490.554 373.835 489.002C373.5 487.449 371.273 485.461 371.136 483.982C371 482.503 372.419 477.189 372.419 477.189L365.024 474.424Z" fill="#F7A491"/>
<path d="M352.265 427.132C352.265 427.132 330.522 425.93 325.668 428.856C320.813 431.781 326.547 437.787 326.547 437.787C326.547 437.787 344.245 445.441 373.877 447.143C380.895 447.546 381.498 428.943 380.188 427.401C378.878 425.86 352.265 427.132 352.265 427.132Z" fill="#E5B05C"/>
<path d="M370.58 492.573C374.886 492.115 374.351 490.012 374.005 488.416C373.789 487.416 372.553 486.237 371.822 485.123C371.437 485.428 370.812 485.965 368.943 486.515C367 487.084 364.339 485.97 362.645 485.248C362.203 487.055 362.009 488.913 362.069 490.772C362.132 491.306 366.277 493.027 370.58 492.573Z" fill="#F47458"/>
<path d="M368.203 442.611C367.336 449.148 363.035 481.699 363.035 481.699L373.02 482.922C373.02 482.922 385.299 440.432 384.66 433.938C384.022 427.445 379.438 426.895 379.438 426.895C379.438 426.895 370.504 425.296 368.203 442.611Z" fill="#F7CC7F"/>
<path d="M379.661 382.277C376.717 381.187 375.276 407.572 374.88 418.435C369.666 418.933 360.576 418.435 358.311 418.269C357.247 418.19 354.794 417.296 353.735 417.157C352.676 417.018 351.667 416.942 351.135 417.035C350.938 417.07 345.503 419.282 345.039 419.758C344.46 420.358 342.902 421.875 343.164 422.531C343.426 423.188 346.166 420.704 346.166 420.704L347.503 419.957C345.838 421.575 342.665 423.705 343.12 424.481C343.576 425.258 346.43 423.076 348.472 421.602C346.722 423.174 344.548 425.988 345.047 426.429C345.497 426.821 347.972 423.564 350.614 422.616C351.593 422.267 352.57 423.231 353.342 423.346C353.91 423.433 354.783 423.618 355.34 423.457L358.202 422.64C359.176 422.73 359.201 423.302 360.186 423.512C361.329 423.754 363.204 424.008 364.658 424.362C373.041 426.399 375.846 427.358 378.403 427.358C386.169 427.358 386.622 384.867 379.661 382.277Z" fill="#F7A491"/>
<path d="M385.25 407.055C385.796 395.928 385.722 382.211 379.451 379.872C376.976 378.948 372.613 384.502 373.399 407.281C376.747 407.556 381.662 407.777 385.25 407.055Z" fill="#86B1F2"/>
<path d="M335.843 481.269C335.843 481.269 336.713 484.044 335.155 485.883C333.597 487.721 327.119 489.519 326.268 490.513C325.416 491.507 325.482 492.355 325.482 492.355L343.663 491.856L343.467 486.392L342.629 482.467L335.843 481.269Z" fill="#F7A491"/>
<path d="M334.026 486.798C334.026 486.798 338.698 488.678 340.954 487.564C343.211 486.45 343.137 486.145 343.795 486.559C344.453 486.973 344.682 492.551 344.682 492.551L324.235 492.69C322.814 492.657 322.093 491.614 323.25 490.723C323.958 490.226 324.703 489.785 325.48 489.402C327.079 488.495 334.026 486.798 334.026 486.798Z" fill="#F47458"/>
<path d="M336.533 432.261C335.128 429.319 331.932 425.487 326.309 427.794C320.944 429.994 319.503 435.404 321.195 440.941C322.887 446.479 334.02 479.033 334.418 483.508L343.314 483.565C343.314 483.565 341.696 457.79 341.3 451.558C340.918 445.561 338.964 437.348 336.533 432.261Z" fill="#F7CC7F"/>
<path d="M322.093 402.275H351.836C352.221 402.275 352.597 402.389 352.916 402.603C353.235 402.817 353.483 403.121 353.629 403.476L362.787 425.764H379.178C379.395 425.764 379.604 425.85 379.757 426.004C379.911 426.157 379.997 426.365 379.997 426.582C379.997 426.798 379.911 427.006 379.757 427.159C379.604 427.313 379.395 427.399 379.178 427.399H332.517C331.89 427.4 331.277 427.22 330.75 426.882C330.223 426.544 329.804 426.061 329.545 425.492L320.325 404.993C320.194 404.699 320.139 404.377 320.164 404.056C320.19 403.735 320.295 403.425 320.471 403.155C320.646 402.885 320.887 402.663 321.17 402.51C321.453 402.356 321.77 402.275 322.093 402.275Z" fill="#355389"/>
<path d="M338.092 415.253C338.291 416.256 339.167 416.926 340.045 416.749C340.924 416.572 341.472 415.621 341.273 414.619C341.074 413.616 340.182 412.949 339.317 413.123C338.452 413.298 337.901 414.254 338.092 415.253Z" fill="white"/>
<path d="M364.967 368.298L366.424 377.87C366.424 377.87 361.108 389.266 357.938 388.277C355.277 387.46 356.914 377.366 356.914 377.366C356.914 377.366 358.363 371.948 357.929 369.238C357.496 366.528 364.967 368.298 364.967 368.298Z" fill="#F7A491"/>
<path opacity="0.2" d="M357.929 369.238C357.495 366.528 364.967 368.298 364.967 368.298L365.089 369.091C364.897 369.581 364.62 370.033 364.271 370.426C362.538 372.198 360.199 373.253 357.722 373.378C357.967 371.916 358.106 370.349 357.929 369.238Z" fill="#F47458"/>
<path d="M366.197 354.756C366.407 354.68 367.889 365.651 365.079 368.68C362.268 371.709 356.786 372.689 354.821 370.314C352.638 367.683 352.755 355.878 357.13 352.776C361.504 349.673 366.197 354.756 366.197 354.756Z" fill="#F7A491"/>
<path d="M358.792 346.898C361.239 347.424 363.464 348.691 365.163 350.526C366.697 350.708 368.784 351.553 370.937 355.113C373.587 359.49 371.63 364.338 368.547 366.719C365.463 369.099 365.507 371.845 365.507 371.845L365.019 370.423C364.653 369.347 364.522 368.206 364.634 367.075C364.691 366.382 364.86 365.703 365.133 365.063C365.873 363.475 363.54 362.418 362.885 361.097C362.38 360.078 362.355 357.749 361.564 356.069L360.615 354.783C360.615 354.783 358.432 353.083 356.287 353.563C354.142 354.042 354.464 346.015 358.792 346.898Z" fill="#E5E5E5"/>
<path d="M363.03 363.05C363.008 364.39 363.617 365.485 364.394 365.501C365.172 365.518 365.816 364.439 365.838 363.101C365.86 361.764 365.251 360.664 364.473 360.65C363.696 360.636 363.052 361.715 363.03 363.05Z" fill="#F7A491"/>
<path d="M359.231 366.762L354.993 366.544C354.993 366.544 354.993 368.157 356.868 368.307C359.138 368.489 359.231 366.762 359.231 366.762Z" fill="white"/>
<path d="M443.694 313.401C444.155 315.308 444.99 318.304 444.99 318.304C444.924 319.121 444.679 322.558 444.389 326.761L450.581 324.288C450.581 324.288 450.504 317.44 450.783 317.021C451.015 316.667 451.408 317.108 453.304 314.398C453.85 313.616 453.956 312.219 453.956 312.219C453.956 312.219 454.068 310.498 453.683 310.337C453.501 310.279 453.304 310.286 453.126 310.359C452.949 310.431 452.802 310.563 452.712 310.732C452.573 311.029 452.608 311.721 452.469 312.017C452.33 312.314 451.432 312.674 451.056 312.655C450.679 312.636 451.102 307.567 451.102 307.567C451.102 307.567 451.315 306.129 451.421 305.66C451.511 305.26 451.877 304.083 451.877 304.083C451.877 304.083 452.305 302.378 451.776 302.247C451.462 302.171 450.665 303.557 450.12 305.028C449.53 306.613 449.197 308.297 449.028 308.27C448.633 308.218 448.843 305.437 448.843 305.437C448.843 305.437 449.236 304.165 449.227 303.563C449.599 302.827 449.844 301.46 449.189 301.348C449.069 301.327 448.207 303.062 448.207 303.062C448.207 303.062 447.866 304.285 447.661 304.854C447.312 305.862 447.26 307.452 447.077 308.152C446.927 308.738 446.804 308.498 446.728 308.523C446.651 308.547 446.763 307.736 446.859 306.616C446.908 306.071 446.859 305.418 447.001 304.783C447.138 304.145 447.23 303.498 447.274 302.846C447.38 301.408 446.471 301.555 446.158 302.871C446.04 303.369 445.915 303.917 445.789 304.473C445.301 306.627 445.314 308.703 445.082 308.722C444.78 308.743 444.979 304.963 444.979 304.963C444.979 304.963 444.515 302.868 444.054 304.81C443.723 306.177 443.565 307.58 443.584 308.986C443.614 309.539 443.216 311.505 443.694 313.401Z" fill="#F8A492"/>
<path d="M509.38 308.406C508.917 310.312 508.084 313.308 508.084 313.308C508.15 314.125 508.393 317.56 508.682 321.752L502.493 319.279C502.493 319.279 502.567 312.429 502.291 312.009C502.057 311.655 501.666 312.099 499.767 309.389C499.221 308.604 499.118 307.21 499.118 307.21C499.118 307.21 499.006 305.491 499.391 305.33C499.572 305.269 499.77 305.275 499.948 305.347C500.126 305.419 500.272 305.552 500.359 305.723C500.501 306.022 500.463 306.714 500.605 307.011C500.747 307.308 501.639 307.667 502.018 307.648C502.398 307.629 501.969 302.558 501.969 302.558C501.969 302.558 501.759 301.122 501.653 300.651C501.563 300.251 501.197 299.074 501.197 299.074C501.197 299.074 500.766 297.366 501.298 297.235C501.609 297.159 502.409 298.546 502.954 300.016C503.544 301.602 503.877 303.285 504.046 303.26C504.439 303.206 504.231 300.428 504.231 300.428C504.231 300.428 503.836 299.153 503.847 298.554C503.475 297.816 503.227 296.451 503.882 296.337C504.005 296.318 504.867 298.053 504.867 298.053C504.867 298.053 505.205 299.273 505.413 299.845C505.759 300.853 505.814 302.441 505.994 303.143C506.147 303.726 506.283 303.486 506.346 303.511C506.409 303.535 506.311 302.727 506.212 301.621C506.163 301.062 506.229 300.42 506.073 299.785C505.934 299.147 505.843 298.5 505.8 297.848C505.694 296.41 506.6 296.557 506.914 297.873C507.034 298.374 507.159 298.919 507.285 299.474C507.77 301.629 507.757 303.707 507.991 303.723C508.292 303.745 508.092 299.965 508.092 299.965C508.092 299.965 508.556 297.873 509.018 299.815C509.348 301.181 509.507 302.583 509.49 303.988C509.457 304.541 509.842 306.507 509.38 308.406Z" fill="#F8A492"/>
<path d="M492.448 469.576C492.448 469.576 495.881 473.825 496.735 474.348C497.589 474.871 496.353 481.04 494.025 481.446C492.713 481.675 491.981 480.231 491.981 480.231L492.358 478.455L487.446 473.411L492.448 469.576Z" fill="#F7A491"/>
<path d="M474.766 470.616C474.766 470.616 477.629 475.266 478.409 475.892C479.19 476.519 477.173 482.484 474.813 482.587C473.481 482.647 472.941 481.125 472.941 481.125L473.544 479.409L469.325 473.781L474.766 470.616Z" fill="#F7A491"/>
<path d="M478.237 475.71C478.237 475.71 476.6 477.802 475.696 478.635C474.857 479.392 473.976 480.101 473.058 480.76C473.058 480.76 471.379 483.799 470.921 484.862C469.898 487.223 468.738 489.857 468.918 491.178C468.97 491.603 469.925 492.052 470.722 491.81C474.037 490.791 482.513 483.05 483.585 480.972C484.818 478.578 478.237 475.71 478.237 475.71Z" fill="#13375B"/>
<path d="M454.042 404.881C454.35 404.021 454.645 403.225 454.928 402.476C458.457 403.244 462.438 404.089 466.536 404.96L467.036 419.941C467.036 418.783 463.955 443.847 463.955 443.847C463.955 443.847 471.915 461.443 477.361 471.695C475.127 474.479 474.087 475.378 470.842 477.273C462.383 467.16 451.327 448.652 450.868 445.574C450.603 443.815 450.366 415.202 454.042 404.881Z" fill="#3C8F7C"/>
<path d="M485.512 409.215C484.42 420.897 482.041 443.224 482.237 445.021C482.837 447.26 493.493 467.923 495.411 470.93C493.889 473.22 491.531 475.694 488.996 476.377C488.497 476.513 470.913 451.534 469.952 449.554C468.861 447.312 467.063 435.085 467.033 419.952L466.533 404.971C473.361 406.415 479.637 407.839 485.512 409.215Z" fill="#50BFA5"/>
<path d="M463.095 355.973L471.132 357.063C471.132 357.063 477.561 357.18 478.357 357.18C479.154 357.18 484.213 386.479 485.676 397.492C487.138 408.504 486.003 410.451 486.003 410.451C486.003 410.451 475.817 412.739 468.266 412.086C460.427 411.394 451.621 407.169 451.621 407.169C451.621 407.169 458.32 386.011 459.649 379.403C460.978 372.795 463.095 355.973 463.095 355.973Z" fill="#355389"/>
<path d="M443.612 320.532C443.612 320.532 443.096 342.346 443.92 344.013C445.121 346.44 458.612 363.652 458.612 363.652C458.612 363.652 452.166 390.576 449.457 399.878C449.184 400.815 447.975 406.861 447.975 407.452C447.975 408.76 453.678 410.418 454.355 410.32C454.96 410.231 459.935 384.622 463.111 372.09C464.19 367.842 466.04 363.828 468.569 360.247L470.776 357.115L453.825 340.156C453.825 340.156 451.738 321.281 451.738 319.728C451.73 319.301 444.436 318.993 443.612 320.532Z" fill="#86B1F2"/>
<path d="M478.076 357.194L499.213 335.695C499.213 335.695 502.157 315.365 502.367 314.6C502.577 313.834 507.825 313.442 509.937 313.238C510.616 313.172 509.582 334.892 508.573 338.53C507.377 342.831 491.401 362.429 491.401 362.429C491.401 362.429 488.538 373.051 489.218 380.825C490.361 393.757 493.45 411.544 492.896 412.102C489.46 414.262 476.278 414.493 475.432 413.151C466.239 398.336 478.076 357.194 478.076 357.194Z" fill="#86B1F2"/>
<path d="M496.542 474.176C496.542 474.176 495.177 476.462 494.397 477.401C493.661 478.262 492.878 479.08 492.05 479.853C492.05 479.853 490.776 483.083 490.457 484.194C489.747 486.668 488.942 489.642 489.278 490.944C489.384 491.358 490.296 492.148 491.049 491.66C493.958 489.77 501.724 480.92 502.51 478.722C503.437 476.181 496.542 474.176 496.542 474.176Z" fill="#13375B"/>
<path d="M471.724 329.183C472.623 329.22 473.523 329.202 474.42 329.128C475.432 329.038 476.725 328.975 477.468 329.128C479.031 329.458 481.512 330.563 482.339 332.609C483.37 335.158 487.057 334.788 482.688 344.441C477.746 355.38 471.967 351.795 471.887 351.553C471.808 351.31 469.03 342.292 469.03 342.292C469.03 342.292 465.576 345.713 465.633 345.56C465.69 345.408 460.926 328.793 471.724 329.183Z" fill="#0E2E35"/>
<path d="M471.254 353.103L470.679 357.382C470.679 357.382 469.388 363.548 471.047 364.736C472.706 365.923 478.106 357.207 478.106 357.207L477.536 346.361L471.254 353.103Z" fill="#F7A491"/>
<path d="M477.705 349.878C476.34 353.577 473.066 355.848 470.752 356.731L471.24 353.103L477.517 346.361L477.705 349.878Z" fill="#F47458"/>
<path d="M475.645 334.099C474.917 333.692 474.108 333.448 473.276 333.385C472.444 333.322 471.608 333.441 470.826 333.734C470.045 334.028 469.338 334.488 468.753 335.082C468.168 335.677 467.721 336.392 467.442 337.177C466.833 338.912 466.335 340.684 465.952 342.483C464.918 347.385 466.539 352.634 468.765 353.056C470.992 353.478 477.754 351.474 479.317 344.547C480.281 340.271 478.894 335.954 475.645 334.099Z" fill="#F7A491"/>
<path d="M477.571 344.787C477.364 345.876 477.912 346.884 478.796 347.053C479.68 347.222 480.565 346.478 480.772 345.394C480.979 344.31 480.434 343.3 479.55 343.131C478.665 342.962 477.779 343.703 477.571 344.787Z" fill="#F7A491"/>
<path d="M479.549 343.131C479.549 343.131 476.785 342.807 476.46 340.832C476.136 338.857 474.108 334.093 469.3 333.941C464.492 333.788 474.384 331.825 474.725 331.953C475.066 332.081 479.165 333.587 479.165 333.587C479.165 333.587 481.348 337.362 481.348 337.689C481.348 338.016 481.091 341.461 481.091 341.461L479.549 343.131Z" fill="#0E2E35"/>
<path d="M472.371 348.154L467.443 347.301C467.443 347.301 467.227 349.208 469.383 349.633C472.013 350.166 472.371 348.154 472.371 348.154Z" fill="white"/>
<path d="M223.307 368.176C223.422 368.625 223.6 369.056 223.836 369.456C225.359 372.226 228.895 376.176 228.895 376.176L231.624 370.025C231.624 370.025 231.179 368.094 230.407 365.335C227.771 366.021 225.255 366.422 223.307 368.176Z" fill="#F8A492"/>
<path d="M238.986 362.843C238.986 362.843 223.733 369.399 223.242 369.274C222.922 369.192 216.985 359.269 216.919 349.935C216.892 345.626 221.375 340.44 226.377 341.467C228.896 341.981 228.857 342.681 232.585 348.088C236.312 353.495 238.986 362.843 238.986 362.843Z" fill="#13375B"/>
<path d="M252.008 480.397C252.008 480.397 251.648 486.39 251.645 486.39C251.511 487.15 250.987 489.024 250.987 489.715C250.987 492.308 263.321 487.515 260.557 486.365C260.309 486.262 258.996 485.475 258.92 484.592C258.794 483.23 258.472 480.482 258.472 480.482L252.008 480.397Z" fill="#F7A491"/>
<path d="M260.527 486.341C260.527 486.341 257.632 487.133 256.161 487.332C254.691 487.531 252.723 485.861 251.675 486.311C250.518 486.806 250.565 491.276 250.565 491.276C250.565 491.276 266.094 492.548 270.46 491.233C272.176 490.71 266.449 488.187 260.527 486.341Z" fill="#DD513A"/>
<path d="M226.775 480.397C226.775 480.397 226.415 486.39 226.412 486.39C226.279 487.15 225.755 489.024 225.755 489.715C225.755 492.308 238.089 487.515 235.325 486.365C235.076 486.262 233.376 484.886 233.294 484.004C233.166 482.642 233.234 480.482 233.234 480.482L226.775 480.397Z" fill="#F7A491"/>
<path d="M235.294 486.341C235.294 486.341 232.399 487.133 230.928 487.332C229.457 487.531 227.49 485.861 226.442 486.311C225.288 486.806 225.241 491.276 225.241 491.276C225.241 491.276 240.841 492.758 245.229 491.233C246.918 490.639 241.221 488.187 235.294 486.341Z" fill="#DD513A"/>
<path d="M230.546 371.491L241.409 356.3C241.455 356.167 241.554 355.894 241.704 355.483C242.249 353.977 243.39 350.853 244.381 347.72V347.688C244.692 346.598 245.352 344.692 245.993 342.853C246.703 340.807 247.584 338.269 247.614 337.836L247.467 337.452C247.068 336.419 246.531 333.963 246.34 332.895C246.22 332.214 246.097 330.558 246.907 330.558C248.182 330.558 247.576 332.211 248.163 333.244C248.534 332.117 248.83 330.967 249.047 329.801L249.26 326.57C249.301 326.328 249.041 324.547 249.934 324.547H249.977C250.78 324.607 250.763 326.5 251.096 329.703C251.202 329.335 251.306 328.886 251.385 328.482C251.436 327.913 251.527 327.348 251.658 326.791C251.497 325.898 251.59 324.489 252.542 324.612C253.02 324.68 252.982 326.644 252.982 326.644C252.982 326.916 252.949 328.992 252.963 329.4C253.061 328.706 253.443 325.731 254.19 325.731C254.81 325.731 254.859 326.532 254.845 327.164C254.845 327.54 254.45 330.76 254.428 331.135C254.72 330.648 255.066 327.807 255.356 327.807C256.562 327.807 256.125 331.844 255.683 332.895C255.624 333.08 255.578 333.268 255.544 333.459C255.362 334.506 255.013 335.518 254.51 336.455C253.751 337.751 252.703 339.811 252.545 340.127C252.428 340.769 252.062 343.085 251.606 345.994C251.41 347.241 251.197 348.606 250.973 350.019C250.932 350.324 250.7 351.297 249.846 354.949C248.67 359.947 248.55 360.162 248.498 360.255C247.988 361.157 236.274 377.036 235.774 377.709L235.482 378.109L230.546 371.491Z" fill="#F7A491"/>
<path d="M250.753 336.063C250.753 336.063 249.871 333.81 248.297 333.808C248.572 333.719 248.864 333.697 249.149 333.745C249.434 333.792 249.703 333.907 249.934 334.08C250.682 334.679 250.753 336.063 250.753 336.063Z" fill="#F47458"/>
<path d="M227.922 331.713L226.524 340.541C226.524 340.541 231.851 344.811 234.959 343.91C237.565 343.155 235.778 339.753 235.778 339.753C235.778 339.753 234.389 335.041 234.814 332.571C235.24 330.1 227.922 331.713 227.922 331.713Z" fill="#F7A491"/>
<path d="M228.925 334.382C230.843 335.234 232.875 335.806 234.956 336.079C234.76 334.842 234.648 333.535 234.814 332.571C235.011 331.43 233.556 331.16 231.935 331.209C229.812 331.389 227.921 331.721 227.921 331.721L227.648 333.418C228.011 333.815 228.444 334.141 228.925 334.382Z" fill="#FE875E"/>
<path d="M221.197 321.529C220.976 321.529 223.304 331.391 226.903 333.088C230.502 334.785 235.872 333.905 236.879 331.244C237.993 328.308 233.929 318.247 228.865 316.966C223.8 315.686 221.197 321.529 221.197 321.529Z" fill="#F7A491"/>
<path d="M225.361 312.47C223.318 313.65 221.697 315.439 220.722 317.585C219.358 318.225 217.74 319.606 216.957 323.332C215.991 327.913 219.412 331.446 223.053 332.508C226.693 333.57 227.247 335.97 227.247 335.97L227.659 333.388C227.659 333.388 226.84 331.138 225.634 330.013C224.428 328.888 226.21 327.249 226.368 325.909C226.488 324.879 225.729 322.88 225.893 321.188C225.893 321.188 227.912 318.135 229.902 317.375C233.307 316.095 229.05 310.345 225.361 312.47Z" fill="#13375B"/>
<path d="M226.892 327.627C227.362 328.766 227.165 329.896 226.464 330.152C225.762 330.408 224.799 329.692 224.33 328.553C223.861 327.415 224.057 326.284 224.758 326.028C225.46 325.772 226.423 326.489 226.892 327.627Z" fill="#F7A491"/>
<path d="M240.302 371.736L261.258 368.326C261.258 368.326 258.874 362.333 258.022 362.333C257.171 362.333 242.176 368.87 242.176 368.87L240.984 371.262L240.302 371.736Z" fill="#F8A492"/>
<path d="M229.569 386.076C229.569 386.076 227.479 396.154 228.33 403.811C229.182 411.467 229.25 438.631 229.25 438.631L225.997 482.105L233.711 482.274C233.711 482.274 242.858 438.822 242.689 439.936C242.52 441.05 245.753 409.343 245.753 409.343L234.838 385.123L229.569 386.076Z" fill="#184655"/>
<path d="M231.613 385.597C231.613 385.597 230.249 394.681 231.954 398.671C233.66 402.661 246.567 441.742 246.739 444.929C246.911 448.116 251.2 483.334 251.2 483.334L260.17 483.08L262.11 443.918L258.047 394.697L254.104 382.252L231.613 385.597Z" fill="#13375B"/>
<path d="M226.524 340.541C226.524 340.541 228.735 341.99 230.798 341.821C232.861 341.652 235.778 339.753 235.778 339.753L235.371 338.392C235.371 338.392 230.036 337.615 229.914 337.697C229.791 337.779 226.524 340.541 226.524 340.541Z" fill="#F7A491"/>
<path d="M250.095 362.037C250.095 362.037 258.022 369.502 261.599 368.23C265.176 366.958 266.658 362.598 257.926 356.221C250.114 350.515 250.095 362.037 250.095 362.037Z" fill="#F8A492"/>
<path d="M255.465 371.248C254.289 364.853 245.753 344.956 245.074 341.287C244.741 339.503 240.137 339.465 235.755 339.696C231.116 339.941 226.524 340.513 226.524 340.513C226.524 340.513 222.431 341.186 220.619 342.872C218.807 344.558 218.335 349.227 220.93 358.082C222.976 365.073 225.514 368.914 226.769 374.005C227.023 375.715 227.241 377.398 227.531 379.368C227.992 386.994 227.531 397.042 227.531 397.042C227.531 397.042 249.849 401.673 258.196 394.653C258.191 394.673 256.671 377.807 255.465 371.248Z" fill="#355389"/>
<path d="M261.157 357.507C261.157 357.507 252.409 364.711 251.888 364.711C251.558 364.711 239.39 355.777 236.582 348.437C235.03 344.378 238.285 339.841 242.007 339.854C244.586 339.854 245.732 340.527 250.843 344.831C255.954 349.134 261.157 357.507 261.157 357.507Z" fill="#466EB6"/>
<path d="M274.317 194.362C271.67 199.274 267.177 202.935 261.826 204.54C256.475 206.144 250.704 205.562 245.783 202.92C240.862 200.278 237.193 195.793 235.585 190.452C233.977 185.11 234.56 179.35 237.207 174.438C239.853 169.525 244.346 165.864 249.698 164.258C255.049 162.653 260.82 163.235 265.741 165.877C270.662 168.519 274.331 173.004 275.939 178.345C277.547 183.686 276.964 189.447 274.317 194.359V194.362Z" fill="#CAE1F9"/>
<path d="M123.964 270.082C121.317 274.994 116.824 278.655 111.472 280.26C106.121 281.865 100.35 281.282 95.4295 278.64C90.5082 275.999 86.84 271.514 85.2316 266.172C83.6232 260.831 84.2064 255.07 86.853 250.158C89.4996 245.246 93.9928 241.584 99.344 239.979C104.695 238.373 110.466 238.956 115.387 241.597C120.309 244.239 123.977 248.724 125.585 254.065C127.194 259.407 126.611 265.167 123.964 270.08V270.082Z" fill="#CAE1F9"/>
<path d="M182.61 200.324C176.932 210.865 167.291 218.723 155.809 222.168C144.327 225.614 131.943 224.366 121.383 218.699C110.823 213.031 102.951 203.408 99.4985 191.946C96.0463 180.485 97.2967 168.124 102.975 157.583C108.653 147.042 118.294 139.185 129.776 135.739C141.258 132.293 153.642 133.541 164.202 139.209C174.762 144.877 182.634 154.5 186.087 165.961C189.539 177.422 188.288 189.783 182.61 200.324Z" fill="#CAE1F9"/>
<path d="M240.913 263.412C236.771 271.1 229.739 276.83 221.364 279.343C212.989 281.856 203.957 280.945 196.255 276.81C192.44 274.764 189.068 271.987 186.329 268.639C183.59 265.292 181.538 261.438 180.291 257.299C179.044 253.16 178.626 248.816 179.061 244.516C179.496 240.215 180.776 236.043 182.826 232.236C186.968 224.548 193.999 218.817 202.374 216.304C210.748 213.791 219.78 214.701 227.482 218.835C235.184 222.97 240.925 229.989 243.443 238.348C245.961 246.708 245.049 255.723 240.908 263.412H240.913Z" fill="#CAE1F9"/>
<path d="M160.723 489.32L156.6 489.304C157.145 471.344 157.623 444.065 156.714 442.537C156.786 442.627 156.88 442.698 156.987 442.741L160.333 441.87C160.878 442.142 161.2 442.306 161.312 449.943C161.369 453.873 161.348 459.302 161.247 466.076C161.086 477.608 160.736 489.203 160.723 489.32Z" fill="#355389"/>
<path d="M172.815 489.1H144.995C144.379 489.1 143.788 489.344 143.353 489.779C142.918 490.213 142.673 490.803 142.673 491.418C142.674 491.525 142.717 491.627 142.793 491.703C142.869 491.779 142.972 491.821 143.079 491.821H174.733C174.84 491.821 174.943 491.779 175.019 491.703C175.096 491.627 175.139 491.525 175.139 491.418C175.139 491.113 175.079 490.812 174.962 490.53C174.846 490.249 174.674 489.993 174.458 489.778C174.242 489.563 173.986 489.392 173.704 489.276C173.422 489.159 173.12 489.099 172.815 489.1Z" fill="#355389"/>
<path d="M160.281 486.817H156.875C156.635 486.817 156.398 486.864 156.176 486.955C155.955 487.047 155.753 487.181 155.584 487.35C155.414 487.519 155.28 487.72 155.188 487.942C155.096 488.163 155.049 488.4 155.05 488.639C155.05 489.123 155.242 489.586 155.584 489.928C155.927 490.27 156.391 490.462 156.875 490.462H160.281C160.521 490.462 160.758 490.415 160.979 490.323C161.201 490.231 161.402 490.097 161.572 489.928C161.741 489.759 161.876 489.558 161.967 489.337C162.059 489.116 162.106 488.879 162.106 488.639C162.107 488.4 162.06 488.163 161.968 487.942C161.876 487.72 161.742 487.519 161.572 487.35C161.403 487.181 161.201 487.047 160.98 486.955C160.758 486.864 160.521 486.817 160.281 486.817Z" fill="#355389"/>
<path d="M61.6454 409.896H60V491.769H61.6454V409.896Z" fill="#13375B"/>
<path d="M144.623 364.597C144.471 360.958 145.008 357.365 146.64 353.974C148.043 351.06 151.514 349.406 154.682 349.401C164.734 349.401 166.014 362.649 172.418 367.765C174.375 369.325 176.561 370.6 178.422 372.283C185.244 378.507 182.176 390.029 175.903 395.484C171.537 399.27 164.715 401.422 159.34 398.461C156.54 396.917 154.411 394.348 152.897 391.535C150.747 387.542 149.35 382.933 147.832 378.676C146.176 374.149 144.814 369.434 144.623 364.597Z" fill="#13375B"/>
<path d="M116.875 402.724L138.754 396.634C138.754 396.634 143.363 390.453 149.293 382.162C151.233 384.069 152.311 387.022 154.262 388.917L139.78 404.908C139.522 405.194 139.206 405.422 138.854 405.578C138.503 405.735 138.122 405.817 137.737 405.818L117.634 405.884L110.752 406.428V402.027L116.875 402.724Z" fill="#F48C7F"/>
<path d="M148.373 398.088C148.373 398.088 155.883 390.402 157.814 387.062C159.746 383.723 156.496 385.899 153.176 385.02C151.918 384.687 152.237 377.339 149.86 379.727C145.964 383.647 141.065 390.5 141.065 390.5L148.373 398.088Z" fill="#96D9C9"/>
<path d="M159.047 376.355C159.047 376.355 165.787 375.029 168.871 377.592C171.954 380.155 168.21 402.956 168.213 406.736C168.216 410.517 170.325 421.194 170.325 421.194C170.325 421.194 149.901 424.762 146.656 419.088C146.656 419.088 145.734 397.473 145.87 394.754C146.007 392.036 149.038 380.918 149.873 379.727C150.708 378.537 159.047 376.355 159.047 376.355Z" fill="#50A7BC"/>
<path d="M159.086 365.951C159.086 365.951 159.121 366.152 159.184 366.495C159.49 368.13 160.666 373.577 161.463 375.081C162.423 376.892 158.172 382.661 154.081 381.958C152.864 381.748 155.11 376.655 155.004 376.116C154.796 375.083 154.515 373.664 154.229 372.229C154.068 371.412 153.904 370.595 153.749 369.813L152.96 365.801L159.086 365.951Z" fill="#F7A491"/>
<path d="M159.19 366.493C159.127 366.152 159.091 365.948 159.091 365.948L152.96 365.795L153.754 369.807L154.232 372.21C155.329 372.018 156.346 371.51 157.16 370.75C158.172 369.866 158.936 368.734 159.375 367.465C159.299 367.081 159.236 366.749 159.19 366.493Z" fill="#F47458"/>
<path d="M154.965 352.07C154.965 352.07 157.852 351.738 159.664 354.07C161.476 356.401 163.427 363.622 158.93 367.544C154.433 371.466 149.985 367.026 149.325 362.317C148.665 357.608 148.411 351.91 154.965 352.07Z" fill="#F7A491"/>
<path d="M147.994 362.26C148.539 363.3 149.432 363.875 150.007 363.545C150.583 363.216 150.613 362.105 150.076 361.064C149.538 360.024 148.638 359.449 148.062 359.778C147.486 360.108 147.456 361.208 147.994 362.26Z" fill="#F7A491"/>
<path d="M154.641 351.299C154.641 351.299 158.502 358.174 161.269 358.476C164.036 358.779 164.393 362.442 164.393 362.442C164.393 362.442 163.405 354.039 160.671 352.419C157.937 350.798 154.641 351.299 154.641 351.299Z" fill="#13375B"/>
<path d="M160.538 360.203C160.314 361.421 160.767 362.538 161.547 362.698C162.328 362.859 163.146 362.001 163.37 360.792C163.594 359.582 163.144 358.457 162.36 358.297C161.577 358.136 160.764 358.991 160.538 360.203Z" fill="#F7A491"/>
<path d="M134.56 473.226C134.56 473.226 140.759 480.645 140.803 481.288C140.847 481.931 140.555 488.98 139.818 489.625C139.081 490.271 136.914 490.729 137.61 491.456C138.137 492.001 142.186 491.886 144.869 491.728C145.652 491.685 146.634 485.447 146.945 484.529C147.396 483.197 148.493 480.199 148.083 479.27C147.881 478.818 146.929 477.889 145.581 477.023C144.167 476.11 138.759 468.579 138.759 468.579L134.56 473.226Z" fill="#F48C7F"/>
<path d="M145.492 476.99C145.492 476.99 141.33 488.702 139.701 489.247C139.267 489.397 137.191 489.792 136.8 490.693C136.68 490.966 136.8 491.892 136.8 491.892H145.475C145.475 491.892 146.567 486.738 147.009 484.472C147.009 484.472 149.304 478.94 149.05 478.436C148.796 477.932 145.492 476.99 145.492 476.99Z" fill="#B75742"/>
<path d="M97.416 476.788C97.416 476.788 92.3542 483.903 92.799 486.153C93.0364 487.359 94.1006 488.936 93.4894 490.069C92.8781 491.203 92.185 491.489 92.185 491.489L76.3911 491.742C75.5315 491.742 76.0991 491.197 76.7949 490.696C77.9301 489.879 78.8442 489.315 82.4707 487.566C82.7081 487.452 83.5622 486.907 83.8788 486.719C84.7205 486.164 85.481 485.495 86.1382 484.731C87.2733 483.473 92.2587 473.226 92.2587 473.226L97.416 476.788Z" fill="#F7A491"/>
<path d="M83.8899 486.716C88.0676 487.784 91.1538 487.06 92.8811 486.365C93.3259 487.623 93.918 489.201 93.6042 490.11C93.2222 491.224 92.6737 491.472 92.1935 491.488C88.3732 491.587 78.2196 491.723 75.3107 491.761C75.2196 491.762 75.13 491.738 75.0526 491.69C74.9752 491.642 74.9133 491.573 74.8741 491.491C74.835 491.408 74.8204 491.317 74.832 491.227C74.8436 491.136 74.881 491.051 74.9396 490.982C75.6627 490.124 83.5788 486.907 83.8899 486.716Z" fill="#B75742"/>
<path d="M115.737 432.898C115.737 432.898 122.013 440.04 123.604 441.17C125.194 442.3 140.546 470.507 140.546 470.507L135.073 474.479C135.073 474.479 121.358 457.412 114.918 448.282C109.474 440.562 111.48 441.053 108.276 436.352C107.422 435.103 107.049 433.588 107.226 432.086C107.403 430.584 108.118 429.197 109.24 428.18C109.526 427.908 109.843 427.636 110.184 427.363C114.923 423.419 147.415 418.982 147.415 418.982L168.197 421.011C168.197 421.011 151.219 432.898 150.583 433.214C149.947 433.53 127.135 436.853 126.66 436.853C126.185 436.853 115.737 432.898 115.737 432.898Z" fill="#B75742"/>
<path d="M170.318 421.194C170.318 421.194 173.881 431.871 168.536 436.853C163.19 441.834 131.425 441.279 120.965 441.279C120.965 441.279 116.687 452.991 116.212 454.879C115.737 456.766 94.9824 481.299 94.9824 481.299L89.2793 477.66C89.2793 477.66 111.606 434.322 113.36 432.424C115.115 430.525 139.977 422.934 146.157 421.194C152.338 419.453 170.318 421.194 170.318 421.194Z" fill="#F47458"/>
<path d="M128.985 401.991L147.952 397.802C147.952 397.802 154.815 389.002 161.402 381.43C163.342 383.336 164.404 386.289 166.371 388.185L151.89 404.176C151.631 404.461 151.316 404.689 150.964 404.846C150.612 405.002 150.231 405.084 149.846 405.086L129.74 405.151L122.861 405.696V401.302L128.985 401.991Z" fill="#F7A491"/>
<path d="M160.48 397.355C160.48 397.355 167.99 389.669 169.922 386.333C171.854 382.996 170.421 377.399 167.103 376.527C163.785 375.655 153.187 389.775 153.187 389.775L160.48 397.355Z" fill="#96D9C9"/>
<path d="M90.0132 380.436H121.298C121.703 380.436 122.099 380.556 122.435 380.781C122.771 381.006 123.033 381.326 123.187 381.699L132.819 405.151H150.081C150.312 405.152 150.534 405.244 150.698 405.407C150.861 405.57 150.954 405.792 150.954 406.022C150.954 406.254 150.862 406.475 150.699 406.639C150.535 406.802 150.313 406.894 150.081 406.894H100.977C100.317 406.894 99.6701 406.703 99.1157 406.345C98.5612 405.986 98.1227 405.475 97.8529 404.873L88.1522 383.306C88.0129 382.996 87.9536 382.656 87.9796 382.317C88.0056 381.978 88.1161 381.651 88.3011 381.366C88.4861 381.081 88.7396 380.846 89.0387 380.684C89.3377 380.521 89.6727 380.436 90.0132 380.436Z" fill="#B75742"/>
<path d="M106.858 394.092C107.068 395.147 107.99 395.849 108.912 395.667C109.835 395.484 110.416 394.479 110.203 393.425C109.99 392.371 109.073 391.666 108.148 391.851C107.223 392.036 106.645 393.038 106.858 394.092Z" fill="white"/>
<path d="M153.356 410.849H59.8961C59.3707 410.849 58.8668 410.641 58.4953 410.27C58.1238 409.899 57.915 409.396 57.915 408.872C57.915 408.347 58.1238 407.844 58.4953 407.473C58.8668 407.102 59.3707 406.894 59.8961 406.894H153.356C153.881 406.894 154.385 407.102 154.756 407.473C155.128 407.844 155.337 408.347 155.337 408.872C155.337 409.396 155.128 409.899 154.756 410.27C154.385 410.641 153.881 410.849 153.356 410.849Z" fill="#184655"/>
<path d="M153.225 364.951L157.465 364.733C157.465 364.733 157.465 366.345 155.588 366.495C153.32 366.678 153.225 364.951 153.225 364.951Z" fill="white"/>
<path d="M139.965 442.374L141.875 434.42C142.538 431.703 144.067 429.274 146.233 427.499C148.398 425.724 151.083 424.7 153.882 424.579L178.127 423.602L178.875 421.15L153.77 422.164C150.441 422.309 147.25 423.529 144.676 425.642C142.102 427.754 140.285 430.644 139.499 433.876L137.466 442.319C138.164 442.338 139.005 442.357 139.965 442.374Z" fill="#355389"/>
<path d="M172.484 438.138C172.484 438.138 139.174 438.708 135.703 438.138C132.232 437.569 130.726 441.914 131.763 444.191C132.8 446.468 135.651 447.347 139.848 447.554C144.045 447.761 178.981 448.745 179.96 447.813C180.779 447.051 191.356 410.912 195.209 397.696C195.578 396.43 195.431 395.069 194.797 393.911C194.164 392.753 193.097 391.893 191.83 391.519C190.565 391.149 189.205 391.293 188.046 391.919C186.887 392.544 186.022 393.602 185.639 394.861L172.484 438.138Z" fill="#184655"/>
<path d="M153.369 409.896H151.724V491.769H153.369V409.896Z" fill="#13375B"/>
<path d="M152.96 415.196H60V416.076H152.96V415.196Z" fill="#13375B"/>
<path d="M400.874 15.9395C400.874 15.9395 412.952 23.743 442.717 22.6808C442.717 22.6808 410.815 34.7089 398.339 36.5719L393.212 16.3426L400.874 15.9395Z" fill="#E25A44"/>
<path d="M406.567 26.1317C404.621 30.1688 401.813 33.7314 398.339 36.5692L395.668 26.0201L395.84 20.9185L406.567 26.1317Z" fill="#B75742"/>
<path d="M360.664 4.39347C360.664 4.39347 395.537 2.04287 400.962 4.03121L406.567 26.1318C406.567 26.1318 386.718 24.4294 367.38 30.8684L360.664 4.39347Z" fill="#F47458"/>
<path d="M339.655 250.746C339.655 250.746 337.977 253.47 338.127 254.287C338.277 255.104 340.31 263.679 341.402 264.245C342.493 264.812 345.334 264.703 344.701 265.817C344.223 266.659 339.186 267.778 335.824 268.434C334.842 268.625 331.674 261.225 331.003 260.19C330.028 258.686 327.728 255.322 327.952 254.048C328.055 253.427 328.945 251.98 330.334 250.488C331.797 248.919 332.834 245.988 332.834 245.988L339.655 250.746Z" fill="#F48C7F"/>
<path d="M364.056 249.965C364.056 249.965 363.486 256.101 363.488 256.118C363.565 257.046 363.54 259.386 363.745 260.203C364.52 263.251 376.843 254.137 373.429 253.568C373.118 253.516 371.994 252.751 371.639 251.749C371.093 250.185 371.885 247.854 371.885 247.854L364.056 249.965Z" fill="#F7A491"/>
<path d="M359.054 139.653C359.054 139.653 362.618 149.493 362.656 149.646C366.798 165.989 378.13 197.039 378.291 200.278C378.687 208.144 372.184 250.436 372.184 250.436L363.18 251.604L362.983 202.988L354.118 185.64L338.938 150.752L359.054 139.653Z" fill="#3C8F7C"/>
<path d="M331.946 156.006L332.71 165.991L338.206 206.504L330.857 249.311C330.857 249.311 334.678 254.304 338.435 254.192L355.645 207.798L359.738 152.966L356.295 141.883L331.946 156.006Z" fill="#50BFA5"/>
<path d="M330.451 250.414C330.451 250.414 339.26 263.57 341.451 263.76C342.032 263.812 344.725 263.632 345.487 264.643C345.719 264.948 346.21 266.471 346.21 266.471L335.147 269.652C335.147 269.652 332.146 262.815 330.915 260.151C330.915 260.151 326.344 254.031 326.5 253.342C326.656 252.653 330.451 250.414 330.451 250.414Z" fill="#13375B"/>
<path d="M363.196 261.769L363.535 256.05C363.535 256.05 367.199 256.611 368.796 255.96C370.392 255.309 373.385 253.557 373.385 253.557C380.543 254.058 386.224 253.745 385.681 255.736L363.196 261.769Z" fill="#13375B"/>
<path d="M380.3 106.442L385.067 110.092C385.984 109.386 387.992 106.409 389.294 105.483L384.928 100.741C384.752 100.612 384.612 100.439 384.523 100.24C384.434 100.041 384.399 99.8221 384.42 99.6051C384.436 99.3585 384.476 99.114 384.54 98.8751C384.674 98.4993 384.797 98.058 384.933 97.6767C385.07 97.2954 384.169 96.5491 383.697 96.4156C383.225 96.2821 383.067 98.088 382.862 98.6246C382.245 100.259 381.498 104.682 381.359 105.418L380.3 106.442Z" fill="#F48C7F"/>
<path d="M385.572 109.629C384.232 108.204 382.344 107.403 380.933 105.922L359.782 120.458C359.782 120.458 343.429 101.158 334.55 107.997C337.863 113.488 341.532 118.757 345.533 123.77C350.963 130.482 359.256 133.685 360.874 132.941C362.716 132.102 385.105 110.203 385.572 109.629Z" fill="#13375B"/>
<path d="M293.068 61.3118C293.769 63.1721 294.978 66.1001 294.978 66.1001C295.01 66.9391 295.185 70.4336 295.406 74.7181L301.357 71.4632C301.357 71.4632 300.443 64.5531 300.673 64.0955C300.866 63.7087 301.317 64.0955 302.902 61.1375C303.358 60.2795 303.289 58.855 303.289 58.855C303.289 58.855 303.194 57.1036 302.785 56.9892C302.593 56.9496 302.394 56.9797 302.223 57.0741C302.051 57.1686 301.92 57.321 301.851 57.504C301.745 57.8227 301.868 58.5172 301.761 58.8359C301.655 59.1546 300.795 59.6231 300.413 59.653C300.031 59.683 299.838 54.5078 299.838 54.5078C299.838 54.5078 299.873 53.0288 299.922 52.5386C299.966 52.1246 300.195 50.9043 300.195 50.9043C300.195 50.9043 300.419 49.1284 299.868 49.0603C299.54 49.0222 298.904 50.5203 298.533 52.0728C298.132 53.7452 297.987 55.4829 297.829 55.4829C297.423 55.4829 297.283 52.6421 297.283 52.6421C297.283 52.6421 297.524 51.3074 297.442 50.7028C297.715 49.9129 297.807 48.502 297.133 48.4666C297.008 48.4666 296.35 50.3187 296.35 50.3187C296.35 50.3187 296.157 51.5961 296.026 52.1954C295.796 53.2576 295.938 54.8701 295.84 55.6001C295.758 56.2075 295.592 55.9841 295.532 56.0141C295.472 56.044 295.472 55.216 295.433 54.0884C295.414 53.5191 295.272 52.8763 295.352 52.2172C295.41 51.556 295.42 50.8914 295.382 50.2288C295.313 48.7634 294.416 49.0222 294.26 50.3895C294.2 50.9098 294.14 51.479 294.08 52.051C293.853 54.2899 294.121 56.3872 293.889 56.4308C293.586 56.4907 293.324 52.6475 293.324 52.6475C293.324 52.6475 292.598 50.5884 292.372 52.6067C292.206 54.0271 292.217 55.4625 292.404 56.8802C292.522 57.4141 292.372 59.4515 293.068 61.3118Z" fill="#F8A492"/>
<path d="M334.817 79.0897C334.817 79.0897 331.226 76.1236 329.16 80.5088C329.16 80.5088 327.054 79.6427 325.908 81.7781C325.908 81.7781 322.216 81.138 321.995 86.561C321.995 86.561 320.12 86.4384 320.142 88.6419C320.142 89.9335 320.605 91.1824 321.446 92.1638C321.446 92.1638 320.51 93.0599 321.22 95.0046C321.823 96.658 323.266 96.7451 323.266 96.7451C323.266 96.7451 323.992 99.5669 325.343 100.286C326.694 101.005 328.344 100.381 328.344 100.381C328.344 100.381 328.983 101.879 330.418 101.566C331.854 101.253 333.488 99.6595 335.188 100.079C336.888 100.498 341.033 99.3381 341.033 99.3381C341.033 99.3381 345.516 96.6607 343.511 91.984C343.511 91.984 345.732 89.44 343.238 87.0077C343.238 87.0077 344.329 82.6034 340.869 80.4952C337.409 78.387 334.817 79.0897 334.817 79.0897Z" fill="#F47458"/>
<path d="M344.981 109.571L337.676 105.821C337.676 105.821 331.187 106.766 330.382 106.861C329.577 106.956 328.063 137.136 327.926 148.439C327.79 159.743 329.182 161.576 329.182 161.576C329.182 161.576 339.756 162.641 347.29 161.048C355.124 159.392 363.515 154.048 363.515 154.048C363.515 154.048 354.155 133.486 352.002 126.973C349.849 120.461 344.981 109.571 344.981 109.571Z" fill="#F7CC7F"/>
<path d="M330.672 106.788L306.684 87.6451C306.684 87.6451 301.226 67.4648 300.912 66.7157C300.599 65.9667 295.258 66.2119 293.094 66.2609C292.401 66.2772 296.096 88.0945 297.575 91.649C299.308 95.849 317.852 113.698 317.852 113.698C317.852 113.698 322.046 124.073 322.303 132.023C322.729 145.228 321.787 163.575 322.415 164.074C326.151 165.836 339.5 164.46 340.179 163.003C347.675 146.911 330.672 106.788 330.672 106.788Z" fill="#13375B"/>
<path d="M337.043 101.898L338.135 106.096C338.135 106.096 340.17 112.088 338.653 113.474C337.136 114.861 330.68 106.82 330.68 106.82L329.94 95.9389L337.043 101.898Z" fill="#F7A491"/>
<path d="M330.178 99.4634C331.998 102.985 335.54 104.859 337.966 105.456L337.038 101.896L329.943 95.9362L330.178 99.4634Z" fill="#F47458"/>
<path d="M320.216 89.6552C320.415 91.2895 321.514 92.526 322.671 92.379C323.828 92.2319 324.606 90.791 324.407 89.1459C324.208 87.5007 323.105 86.2777 321.951 86.4221C320.797 86.5665 320.016 88.01 320.216 89.6552Z" fill="#F47458"/>
<path d="M325.724 82.489C325.839 83.4342 327.072 84.0634 328.483 83.8945C329.894 83.7256 330.939 82.8186 330.824 81.8735C330.71 80.9283 329.474 80.2964 328.066 80.4653C326.658 80.6342 325.61 81.5412 325.724 82.489Z" fill="#F47458"/>
<path d="M332.404 84.115C333.163 83.753 333.991 83.561 334.831 83.5528C335.672 83.5445 336.504 83.7201 337.269 84.0672C338.034 84.4143 338.714 84.9245 339.261 85.5619C339.807 86.1993 340.207 86.9485 340.432 87.7567C340.923 89.5368 341.3 91.3463 341.559 93.1743C342.252 98.1478 340.258 103.309 337.99 103.584C335.723 103.86 329.064 101.389 327.981 94.34C327.31 89.9902 329.015 85.7575 332.404 84.115Z" fill="#F7A491"/>
<path d="M329.72 94.6969C329.853 95.7864 329.231 96.7778 328.331 96.8759C327.43 96.9739 326.59 96.1813 326.459 95.0809C326.328 93.9805 326.947 93.0027 327.848 92.9019C328.748 92.8011 329.586 93.5992 329.72 94.6969Z" fill="#F7A491"/>
<path d="M341.925 80.4489C344.493 82.0178 345.655 84.7334 344.52 86.512C343.385 88.2906 340.389 88.4622 337.821 86.8933C335.253 85.3245 334.094 82.6089 335.226 80.8303C336.358 79.0517 339.36 78.88 341.925 80.4489Z" fill="#F47458"/>
<path d="M335.988 82.7068C336.086 83.524 335.191 84.2812 333.99 84.4255C332.79 84.5699 331.736 84.036 331.638 83.2325C331.54 82.429 332.435 81.6555 333.636 81.5111C334.836 81.3667 335.89 81.9006 335.988 82.7068Z" fill="#F47458"/>
<path d="M343.208 88.119C343.248 88.4849 343.178 88.8545 343.008 89.1811C342.838 89.5077 342.575 89.7768 342.252 89.9546C341.929 90.1323 341.561 90.2107 341.194 90.18C340.826 90.1493 340.476 90.0107 340.187 89.7818C339.898 89.5528 339.684 89.2438 339.571 88.8935C339.458 88.5431 339.451 88.1672 339.551 87.813C339.651 87.4588 339.854 87.1422 340.135 86.9029C340.415 86.6637 340.76 86.5125 341.126 86.4684C341.621 86.4117 342.119 86.5538 342.509 86.8633C342.9 87.1728 343.151 87.6245 343.208 88.119Z" fill="#F47458"/>
<path d="M351.072 114.057C351.072 114.057 361.212 137.983 364.819 146.416C365.21 147.328 367.172 153.293 367.243 153.887C367.404 155.208 361.845 157.58 361.149 157.564C360.527 157.55 352.363 132.279 347.617 120.006C346.011 115.847 343.654 112.017 340.665 108.705L338.359 106.798L338.138 106.088C338.138 106.088 348.436 107.011 351.072 114.057Z" fill="#13375B"/>
<path d="M360.512 -0.0142723L358.694 0.445068L400.034 163.398L401.851 162.939L360.512 -0.0142723Z" fill="#13375B"/>
<path d="M390.184 103.353C390.11 102.98 389.999 102.615 389.853 102.263C389.709 101.892 389.495 101.55 389.223 101.258C389.074 101.06 388.965 100.834 388.901 100.594C388.867 100.497 388.819 100.405 388.759 100.321C388.585 100.088 388.374 99.8849 388.134 99.7195C387.869 99.5185 387.642 99.2723 387.463 98.9923C387.271 98.7112 387.011 98.4827 386.707 98.3277C386.407 98.1806 386.161 98.1779 386.069 98.3631C385.569 99.2183 383.067 101.948 384.085 103.266C384.931 104.372 386.033 105.521 386.268 106.044C386.582 106.76 387.679 106.709 388.334 106.461C389.556 105.987 390.525 105.211 390.184 103.353Z" fill="#F7A491"/>
<path d="M531 491.121H0V493H531V491.121Z" fill="#184655"/>
<path d="M352.98 71.7465C353.009 71.6954 353.049 71.6514 353.097 71.618C353.145 71.5846 353.201 71.5626 353.259 71.5537C353.317 71.5447 353.376 71.5491 353.432 71.5665C353.488 71.5839 353.54 71.6138 353.583 71.6539C353.856 71.9263 354.112 72.1987 354.377 72.4711C354.964 73.0676 354.969 73.1084 355.056 73.0948C355.266 73.0621 355.275 72.6835 355.264 72.5501C355.203 72.2442 355.174 71.933 355.176 71.6213C355.255 71.0111 355.818 70.6979 356.322 71.1065C356.784 71.4823 357.226 71.8855 357.665 72.2913C357.698 71.624 357.714 70.9567 357.758 70.2921C357.761 70.2424 357.778 70.1945 357.806 70.1537C357.835 70.1128 357.874 70.0805 357.919 70.0603C357.965 70.0401 358.015 70.0327 358.065 70.039C358.114 70.0453 358.161 70.065 358.2 70.0959L360.227 71.6785C360.331 71.7602 360.773 72.1932 360.896 72.1143C361.019 72.0353 361 71.5695 361.01 71.4742C361.073 70.9049 361.103 70.7033 361.352 68.8512C361.365 68.7989 361.391 68.7509 361.428 68.7119C361.466 68.673 361.513 68.6444 361.564 68.629C361.616 68.6136 361.671 68.6119 361.724 68.6242C361.776 68.6364 361.825 68.662 361.865 68.6987C363.292 70.4037 363.502 70.2267 363.638 70.736C363.644 70.7601 363.644 70.7853 363.638 70.8092C363.631 70.8332 363.619 70.8552 363.602 70.8731C363.585 70.8911 363.563 70.9044 363.54 70.9118C363.516 70.9193 363.491 70.9207 363.466 70.9158C363.193 70.8886 363.128 70.8641 362.416 70.1749C362.23 69.9979 362.05 69.8154 361.87 69.6302C361.613 71.8855 361.597 72.4602 361.038 72.6263C360.645 72.7434 360.579 72.6263 358.284 70.8205C358.284 71.5205 358.241 72.2178 358.211 72.9178C358.211 72.9759 358.194 73.033 358.163 73.0819C358.131 73.1308 358.086 73.1694 358.033 73.1931C357.979 73.2168 357.92 73.2245 357.863 73.2153C357.805 73.206 357.752 73.1803 357.709 73.1411C356.071 71.7792 356.071 71.6893 355.899 71.6104C355.899 71.6104 355.899 71.4851 355.869 71.6594C355.82 71.9563 356.101 72.5964 355.894 73.1329C355.711 73.6069 355.193 73.9691 354.691 73.7213C354.399 73.5796 354.32 73.4353 353.441 72.5909C353.171 73.1464 352.837 73.6684 352.445 74.1462C352.299 74.3475 352.094 74.4988 351.858 74.5793C351.805 74.5946 351.748 74.5958 351.694 74.5829C351.64 74.57 351.59 74.5433 351.55 74.5054C351.509 74.4676 351.479 74.4199 351.462 74.3669C351.445 74.314 351.443 74.2577 351.454 74.2034C351.664 73.5551 352.238 73.4053 352.98 71.7465Z" fill="#F47458"/>
<path d="M345.418 63.4636C346.034 63.5725 346.659 63.6263 347.285 63.6243C347.407 63.6243 347.637 63.6515 347.718 63.529C347.909 63.2321 347.405 62.7718 347.173 61.6223C347.077 61.1185 346.829 60.0889 347.508 59.8846C347.884 59.8214 348.267 59.8168 348.643 59.871C348.916 59.871 349.189 59.871 349.462 59.871C348.979 57.9889 348.867 58.0924 349.061 57.6729C349.091 57.6182 349.142 57.5775 349.202 57.5597C349.263 57.5419 349.327 57.5483 349.383 57.5776C349.762 57.8282 349.656 57.7791 350.286 60.1461C350.301 60.1997 350.304 60.256 350.295 60.3109C350.285 60.3658 350.263 60.4178 350.231 60.4631C350.198 60.5084 350.156 60.5458 350.107 60.5725C350.058 60.5992 350.004 60.6145 349.948 60.6173C349.579 60.6173 347.92 60.4756 347.716 60.492C347.721 60.5345 347.721 60.5775 347.716 60.62C347.716 61.4017 347.989 62.0636 348.261 62.7799C348.485 63.3655 348.472 64.1554 347.716 64.3216C347.091 64.3868 346.462 64.3722 345.841 64.278C346.179 65.4274 346.523 66.5714 346.853 67.7208C346.87 67.7799 346.874 67.842 346.863 67.9025C346.853 67.9631 346.828 68.0204 346.792 68.0702C346.756 68.1201 346.71 68.1611 346.655 68.1902C346.601 68.2193 346.541 68.2358 346.48 68.2383C345.737 68.173 344.995 68.1321 344.253 68.0967C344.458 68.7751 344.767 69.4182 345.167 70.0033C345.462 70.431 344.856 70.9567 344.187 69.8236C343.792 69.1973 343.503 68.5097 343.333 67.7889C343.317 67.7297 343.314 67.6675 343.325 67.607C343.336 67.5465 343.36 67.4892 343.396 67.4395C343.433 67.3897 343.48 67.3488 343.534 67.3197C343.588 67.2906 343.648 67.2741 343.71 67.2714C344.447 67.285 345.183 67.3313 345.917 67.3913C345.595 66.2446 345.287 65.0951 344.962 63.9484C344.941 63.8838 344.938 63.8147 344.952 63.7482C344.967 63.6818 344.999 63.6206 345.046 63.571C345.093 63.5214 345.152 63.4852 345.217 63.4663C345.283 63.4474 345.352 63.4465 345.418 63.4636Z" fill="#66CCB2"/>
<path d="M328.173 57.0818C328.077 57.082 327.985 57.0457 327.915 56.9805C327.845 56.9152 327.802 56.8258 327.796 56.7304C327.621 55.7329 327.621 54.7127 327.796 53.7152C327.902 53.1922 328.666 53.3883 328.596 53.9031C328.465 54.7134 328.428 55.5359 328.486 56.3545C329.083 56.3455 329.677 56.2706 330.257 56.1312C330.314 56.115 330.373 56.1119 330.431 56.122C330.489 56.1322 330.544 56.1553 330.591 56.1897C330.639 56.224 330.678 56.2687 330.706 56.3204C330.733 56.3721 330.749 56.4294 330.751 56.488C330.713 57.1362 330.492 59.5903 330.478 59.6121C330.499 59.6064 330.521 59.6064 330.541 59.6121C330.798 59.6639 331.679 59.4814 332.08 59.5059C332.528 59.5359 332.67 60.1405 332.694 60.5082C332.741 61.2518 332.184 62.0717 332.443 62.7989C332.702 63.5262 333.807 62.7281 334.626 63.3001C335.262 63.7413 335.041 64.4822 334.782 65.6534C334.716 65.9421 334.651 66.2227 334.364 66.3643C334.328 66.3853 334.287 66.3942 334.245 66.3898C334.204 66.3854 334.165 66.3678 334.135 66.3398C333.824 65.9803 333.985 65.5581 334.195 64.4876C334.219 64.3515 334.307 64.1199 334.211 63.9974C333.895 63.5888 332.962 64.1717 332.208 63.6814C331.622 63.3001 331.537 62.5511 331.633 61.9164C331.709 61.4207 332.015 60.8078 331.854 60.3012C331.428 60.323 330.997 60.3584 330.571 60.3475C330.469 60.357 330.367 60.3452 330.27 60.3128C330.172 60.2805 330.083 60.2283 330.008 60.1596C329.932 60.0909 329.871 60.0073 329.83 59.914C329.788 59.8206 329.766 59.7197 329.766 59.6176C329.769 59.0839 329.805 58.5508 329.873 58.0214C329.9 57.6701 329.924 57.3187 329.957 56.9674C329.367 57.0627 328.77 57.101 328.173 57.0818Z" fill="#07345A"/>
<path d="M358.977 82.8404C360.753 85.1147 359.08 86.2151 358.336 85.5642C358.257 85.5035 358.195 85.4251 358.153 85.3354C358.111 85.2456 358.091 85.1472 358.095 85.0484C358.099 84.9495 358.127 84.853 358.176 84.767C358.225 84.6809 358.293 84.6078 358.376 84.5536C358.548 84.4447 358.821 84.6163 358.75 84.826C358.679 85.0358 358.889 85.0439 358.971 84.8614C359.078 84.6163 358.903 84.3167 358.794 84.0906C358.543 83.5867 358.221 82.9248 357.596 82.8268C356.666 82.6797 355.653 83.6112 356.163 85.033C356.903 87.084 360.232 87.0595 360.835 84.9132C360.984 84.3344 360.96 83.7248 360.766 83.1595C360.572 82.5942 360.217 82.0979 359.744 81.7318C359.558 81.5875 359.784 81.3423 359.973 81.4213C361.392 82.0287 361.883 83.8727 361.375 85.2482C360.868 86.6237 359.329 87.3373 357.885 87.0922C356.371 86.8362 355.137 85.5097 355.337 83.9272C355.555 82.1813 357.738 81.2525 358.977 82.8404Z" fill="#3C8F7C"/>
<path d="M322.286 63.8476C322.534 64.218 322.674 64.9725 322.172 65.2095C322.118 65.24 322.059 65.2583 321.998 65.2629C321.936 65.2675 321.875 65.2584 321.817 65.2362C321.76 65.214 321.708 65.1793 321.666 65.1346C321.624 65.0899 321.593 65.0364 321.574 64.978C321.495 64.7056 321.639 64.4714 321.402 64.2643C321.296 64.194 321.169 64.1629 321.042 64.1763C320.916 64.1897 320.798 64.2469 320.709 64.3379C320.128 64.8091 320.278 65.8441 320.581 66.427C320.689 66.6507 320.855 66.8414 321.062 66.9795C321.269 67.1175 321.509 67.1979 321.757 67.2124C322.006 67.2268 322.254 67.1748 322.475 67.0616C322.697 66.9484 322.884 66.7782 323.017 66.5686C323.188 66.2525 323.304 65.91 323.361 65.5554C323.41 65.3647 323.719 65.283 323.817 65.4846C324.194 66.2772 323.664 67.236 322.998 67.6854C322.636 67.9109 322.216 68.0274 321.788 68.0211C321.361 68.0149 320.945 67.886 320.589 67.65C319.803 67.127 319.429 66.1002 319.462 65.1822C319.514 63.2729 321.492 62.6464 322.286 63.8476Z" fill="#F7CC7F"/>
<path d="M232.121 329.942C232.121 329.942 232.967 331.304 234.64 330.487C236.678 329.474 235.865 327.946 235.865 327.946L232.121 329.942Z" fill="white"/>
<path d="M335.362 97.998C335.362 97.998 335.529 99.6023 337.395 99.5751C339.674 99.5424 339.603 97.8156 339.603 97.8156L335.362 97.998Z" fill="white"/>
</g>
<defs>
<clipPath id="clip0">
<rect width="531" height="493" fill="white"/>
</clipPath>
</defs>
</svg>
