<svg width="181" height="182" viewBox="0 0 181 182" fill="none" xmlns="http://www.w3.org/2000/svg">
<ellipse cx="90.4419" cy="90.6904" rx="90.4419" ry="90.6904" fill="#E5E5E5"/>
<path d="M145.104 138.148V124.233C145.104 116.853 142.211 109.775 137.062 104.556C131.913 99.337 124.93 96.4051 117.648 96.4051H62.737C55.4554 96.4051 48.4719 99.337 43.323 104.556C38.1741 109.775 35.2815 116.853 35.2815 124.233V138.148" stroke="#CECECE" stroke-width="5" stroke-linecap="round" stroke-linejoin="round"/>
<path d="M90.4408 87.9572C105.536 87.9572 117.772 75.7205 117.772 60.6258C117.772 45.5312 105.536 33.2945 90.4408 33.2945C75.3461 33.2945 63.1095 45.5312 63.1095 60.6258C63.1095 75.7205 75.3461 87.9572 90.4408 87.9572Z" stroke="#CECECE" stroke-width="5" stroke-linecap="round" stroke-linejoin="round"/>
</svg>
